<mxfile host="Electron" modified="2022-07-12T18:57:12.600Z" agent="5.0 (Macintosh; Intel Mac OS X 10_15_7) AppleWebKit/537.36 (KHTML, like Gecko) draw.io/17.4.2 Chrome/100.0.4896.60 Electron/18.0.1 Safari/537.36" etag="USb7qlVkSvy1fBOe9AKk" compressed="false" version="17.4.2" type="device">
  <diagram name="Harness" id="FRuzbeFoEge2VXZ3eFiD">
    <mxGraphModel dx="1092" dy="838" grid="1" gridSize="10" guides="1" tooltips="1" connect="1" arrows="1" fold="1" page="1" pageScale="1" pageWidth="1654" pageHeight="1169" math="0" shadow="0">
      <root>
        <mxCell id="0JZgIBOhlEH9NgGS4ZtJ-0" />
        <mxCell id="0JZgIBOhlEH9NgGS4ZtJ-1" value="Frame" style="locked=1;" parent="0JZgIBOhlEH9NgGS4ZtJ-0" />
        <mxCell id="g0rGmHFVurje64OlPNuJ-0" value="" style="group;movable=0;resizable=0;rotatable=0;deletable=0;editable=0;connectable=0;" parent="0JZgIBOhlEH9NgGS4ZtJ-1" vertex="1" connectable="0">
          <mxGeometry x="10" y="10" width="1630" height="1150" as="geometry" />
        </mxCell>
        <mxCell id="g0rGmHFVurje64OlPNuJ-1" value="" style="shape=image;verticalLabelPosition=bottom;labelBackgroundColor=default;verticalAlign=top;aspect=fixed;imageAspect=0;image=data:image/jpeg,/9j/4AAQSkZJRgABAQAAAQABAAD/4gIcSUNDX1BST0ZJTEUAAQEAAAIMbGNtcwIQAABtbnRyUkdCIFhZWiAH3AABABkAAwApADlhY3NwQVBQTAAAAAAAAAAAAAAAAAAAAAAAAAAAAAAAAAAA9tYAAQAAAADTLWxjbXMAAAAAAAAAAAAAAAAAAAAAAAAAAAAAAAAAAAAAAAAAAAAAAAAAAAAAAAAAAAAAAApkZXNjAAAA/AAAAF5jcHJ0AAABXAAAAAt3dHB0AAABaAAAABRia3B0AAABfAAAABRyWFlaAAABkAAAABRnWFlaAAABpAAAABRiWFlaAAABuAAAABRyVFJDAAABzAAAAEBnVFJDAAABzAAAAEBiVFJDAAABzAAAAEBkZXNjAAAAAAAAAANjMgAAAAAAAAAAAAAAAAAAAAAAAAAAAAAAAAAAAAAAAAAAAAAAAAAAAAAAAAAAAAAAAAAAAAAAAAAAAAAAAAAAAAAAAAAAAAAAAAAAAAAAAAAAAAB0ZXh0AAAAAEZCAABYWVogAAAAAAAA9tYAAQAAAADTLVhZWiAAAAAAAAADFgAAAzMAAAKkWFlaIAAAAAAAAG+iAAA49QAAA5BYWVogAAAAAAAAYpkAALeFAAAY2lhZWiAAAAAAAAAkoAAAD4QAALbPY3VydgAAAAAAAAAaAAAAywHJA2MFkghrC/YQPxVRGzQh8SmQMhg7kkYFUXdd7WtwegWJsZp8rGm/fdPD6TD////bAEMABQUFBQUFBQYGBQgIBwgICwoJCQoLEQwNDA0MERoQExAQExAaFxsWFRYbFykgHBwgKS8nJScvOTMzOUdER11dff/bAEMBBQUFBQUFBQYGBQgIBwgICwoJCQoLEQwNDA0MERoQExAQExAaFxsWFRYbFykgHBwgKS8nJScvOTMzOUdER11dff/AABEIAPEDcgMBIgACEQEDEQH/xAAcAAEBAAMBAQEBAAAAAAAAAAAABwUGCAQDAQL/xABSEAACAgECAQUKCAoJAgQHAAAAAQIDBAURBgcSITFBEzVRYXFydIGxshciMzZSkaHCFBUyQmVzkpOkwSM0RWKDhNHS4hazQ1NUgiQlVaPh8PH/xAAbAQEAAgMBAQAAAAAAAAAAAAAABAcDBQYCAf/EAEERAAIBAwEEBgYGCQQDAQAAAAABAgMEEQUGEiExEzNBUWFxMjVygbGyFCJzkaHBFRY0UlRidJLRQlNVo4KD4SP/2gAMAwEAAhEDEQA/AOywAAAAAAAAAAAAAAAAAAAAAAAAAAAAAAAAAAAAAAAAAAAAAAAAAAAAAAAAAAAAAAAAAAAAAAAAAAAAAAAAAAAAAAAAAAAAAAAAAAAAAAAAAAAAAAAAAAAAAAAAAAAAAAAAAAAAAAAAAAAAAAAAAAAAAAAAAAAAAAAAAAAAAAAAAAAAAAAAAAAAAAAAAAAAAAAAAAAAAAAAAAAAAAAAAAAAAAAAAAAAAAAAAAAAAAAAAAAAAAAAAAAAAAAAAAAAAAAAAAAAAAAAAAAAAAAAAAAAAAAAAAAAAAAAAAAAAAAAAAAAAAAAAAAAAAAAAAAAAAAAAAAAAAAAAAAAAAAAAAAAAAAAAAAAAAAAAAAAAAAAAAAAAAAAAAAAAAAAAAAAAAAAAAAAAAAAAAAAAAAAAAAAAAAAAAAAAAAAAAAAAAAAAAAAAAAAAAAAAAAAAAAAAAAAAAAAAAAAAAAAAAAAAAAAAAAAAAAAAAAAAAAAAAAAAAAAAAAAAAAAAAAAAAAAAAAAAAAAAAAAAAAAAAAAAAAAAAAAAAAADHarqeNpGDdmZDfMh1RXXKT6kvGzxUqQpU51KklGEU3KT5JI906c6tSFOnFynJpRiubbMiCOW8pGqO1urBxY179EZc6UtvKmvYb3w3xPj8QVWR7n3HJqSc69900/zovwew1Vnr2mX1foKNd9I87qlFx3sd2TbXmg6nY0OnrUF0axvOMlLdz34NoABuDTAAAAAAAAAAAAAAAAAAAAAAAAAAAAAAAAAAAAAAAAAAAAAAAAAAAAAAAAAAAAAAAAAAAAAAAAA82VmYuDU7srIrprXRzpyUVv4Ok9JzvxTq9+ravlSnN9xpslXTDsjGL2328L23ZlpUulk1nCXMw16yoxTxlvkWmjijh/JtjVVqlLm3slLeG/rkkjPnKhZuT3V78zEycC+bk8bmuqTe75kt/i+poy1bdQjvRbaXPJho3LqS3ZRSb5NFFABFJgAAAAAAAAAAAAAAAAAAAAAAAAAAAAAAAAAAAAAAAAAAAAAAAAAAAAAAAAAAAAAAAAAAAAAAAAAAAAAAJpyk2SWHpdW/xZXTk/LFbL2lLJhyl/IaR59vsiaTaNtaLfYf8Apivvkjd7OJPWrHK/1S/CLJMblwHZKHEWPGL2U6rYy8a5vO9qNNNv4F+cmH5lvuMrbSG1qmnY/iKfxLL1hJ6VqOf4ep8C8gAuQpkAAAAAAAAAAAAAAAAAAAAAAAAAAAAAAAAAAAAAAAAAAAAAAAAAAAAAAAAAAAAAAAAAAAAAAAAHOfEul36VrGZVZF8yyyVlUuyUJPdfV1M6MPFnadg6lT3HMxoXV9aUl0p+FPrT8hlo1eik3jKfMwV6PTRSzhrkcwlh5O9KvxsbLz7oOKyObGpPobjHpcvI31Gw0cGcOY9qsjpyk090rJynFeqTafrNoSUUklsl0JIy1bhTi4xT482zFQtnTmpya4ckj9ABFJgAAAAAAAAAAAAAAABh8niDRcS1036njwsT2lHnptPwPbq9Zk6b6ciqFtNsLK5LeM4SUovyNH1ppJtM+KUW2k02j6gA+H0AAAAAAAAAAAAAAAAAAAAAAAAAAAAAAAAAAAAAAAAAAAAAAAAweu69h6Diq6/41kt1VVF/Gm17Eu1ke1HjPXdQlLm5Txq31Qp+Lt5ZdbPDxHqs9X1bKyHPepScKV2KEehbeXrMEVfrOv3V5cVadCtKnbxbjFQeHLHa2u/uLS0XZ+1s7elUuKMalzJKUnNZUM9iT7u89M8vLslzrMq2b8Mptv7T9qzs2iXOpzLq5eGFkov7GffTtJ1LVpyhhYk7nHbnNbKK38LeyR+ahpeoaVZGvNxZ0ykvi79Klt4Gt0zR7l4qf0jcrKnnrcPdz5m86SzdT6Pv0XUx1WVvY8jaNJ471bBnGOXL8Lo7ed0WJeKXb6yxadqOJquJXlYlvPrl0eBxa64yXY0cym6cD6vPT9XrxZT/AKDLarlHsU/zWvHv0HSaDtBc0rmlbXVWVSjUaipSeXBvlx7jmtf2etqttVubWlGnWppycYrEZpcXw7y6Ew5S/kNI8+32RKeTDlL+Q0jz7fZE6zaT1LfeUPnRyWzfrux85/IyTG28EThXxDjTnJRhGq5yk3sklB7tmpH9wssr5zhJx50XF7dqfWvWVdaV/ot1b193e6KpGeO/deS07yh9KtbihvbvS05Qz3byxkoGv8d5mTbZRpc3Rjp7d12/pJ+Nb/kr7TRbMzMuk525d05Prcptv7T5103XNqqqc2utRi5bfUfNpxbTWzXQ0zNeahfX03Vr1ptN8FlqK8EjDZ6fY2NNUrejBNJZeE5PxbMxgcQaxps4yx8+3mr/AMOUnOD8Ti+gtvDfEFOv4crFFV5FTUbq0+pvqa8TOeTbuCc2WJxBiw5zUMhSqmvDut19qNrs/q9za3tChOrKVCrNQcZPKi5cE1nkanaHR7a6sq9eFKMa9KLmpRWHJR4tPv8AAvQBrvFOqy0fRsjIre102qqn4JT7fUuksy4r07ahWr1HiFODlLyRWVvQqXNejQprM6k1GPmzD8R8a4+kzniYcI35ceibf5Fb8D2634iXZvEuuZ8pO7UrlF/mVy7nHbwbR239Zg23JuUm229232n4VRqGuX+oVJOVaVOln6tODwkvHHNls6doWn6fTio0Y1KuPrVZpNt+GeSPs8jIbbd9jb63zmeinU9Sx2nTn5FbXVzbJL2Mz2HwVr+bTG5Y0KoSjvFWzUZNeTpa9ZgtR03N0rIePmUOuzbdJ9Ka8Ka6GiJO21G2pwrzo16cJcptOK4+JKp3WnXVSdCnWoVJx5wTUnw8DatK481fDnGOXJZdPRupbKaXikuv1lg03UsTVsSvLxbOdXPoa7Yy7YyXY0czFA5PdRnRqtuC5f0eTW2l/frW+/1bnR7Pa9dRu6Npc1pVaVV7sXJ5lGT5ce58jndotBtJWla7tqMaVWkt6SgsRlFc+HeuZaDWeLNXt0bR7L6WlfZNVVPr5rlu9/UkbMTvlI714PpX3WdnrFapb6Ze1acnGcabw1zWeGUcXo1Cnc6pZUqsVKEqiynyeOOGSW3Ozb7Xbbl2zsb3cnNtlV4C17Lznk6fl3StlVBWVTk95c3fZpvt23WxIDYOHtRelXajlRltYsKyNfnzlGK+rfcrTR9QqWeo0asq0txt9Lx5xxxyWZrOn0rzTqtKNGO+kui4cpZWMG1cYcW5NmTbp2n3yrqqbjbbB7SnJdDSa6kurxmiYuqajhXxvx8y2Fie+6k+nyp9DXiZ4W2223u30ts/CNeald3t1K5nWmpb2YJNrcXYkSbLTLSytY20KMHHdxNuKe++1s6R0LVFrGl4uZslOcdrIrsnF7P1dqPRqWo42lYV2Zky2rrXUuuTfVFeNmrcn8ZR0DdrZSybHHxrZL+Rq/KLqUrc3F0+Mv6OmHdJrwzn1b+Re0sWrq1S10Chezw606UFHPbOS5/mVzS0mnda/XsYNqjCrNyx2Qi+X5Gv6vxbrGq2T/8AiJY9H5tNUnFbf3mulmvRysqMudHItUl2qbTPgfqTbSS3b6EkVnXu7q5qOpWrznNvm38O4s2jaWttTVOjQhCCXJL495uuicb6np1ldeZZLLxt9pKb3sivDGT6/IzcOLuKHjaZgvTMj42anKNseuNa69vA23t4iUZOl6lh1RuycC+quXVKdcor7TyzutnVVVKTcK3JwT7Od0vY21PW9StbS5s6s6mZwXRyllThx44b44aNRU0PTLq8trylCniE30kY4cJ8OGUuGUz6rNzFZ3VZdys335/PfO38O+5aeCddv1jAuqyp8/IxpRTm+uUJfkt+Poe5DCn8mny+r+ZV7WZdmLqvDVqFNVZblXeU4t8HiLefPgYtp7WhPSK9R0479LccJJcVmSTXlxKyfxOcK4TnOSjGKblJvZJLrbP7J3yharPGwcfAqntLJblZt19zh2et+wsbULyFhZ17mayoR4Lvb4JfeVxp9nPULyhbQeHOXF9yXFv7jFa5ygXSsnRpEVGC3X4ROO8peOMX0JeU0PJ1rVstt36lkT37HY9vqXQYw/qEJ2TjCEXKUmlGKW7bfYkVPearqF/UcqtxNpvhCLaivBJFtWek6fYU1GjbQylxnJJyfi2z++73/wDnT/aZkcTXdYwZJ4+pXw2/Nc3KP7Mt0eyfCfEUKHfLSreZtvsnFy/ZT3+w15pptNdPaYJRvrOUJSVehJ8Yt70G/LkZ4ysb2M4xdCvFcJJbs0vPmWPhnjeOo214WoxhXfLortj0Rm/A12N/UyiHLCbTTT2a6U0dDcL6pLV9Fxb7Jb3R3qtfhnDt9a6TvNmdarXu/aXM96rCO9Cb5yiuDT8UcFtPolGx3Lu1hu0py3ZwXKMnxTXgzYSM8b8SZs9Ru07FyJ1UUbRs5j5rsm1u92uxdWxZjm/iTv8A6x6VZ7TuLaKc22s4Rwl3KUaaSeMvieLE1PUMK2N2NmW1zT61J7Pyrqa8Ra6+L8WvhzG1bIS7rNOHcY9DlbHoaXgXRvv2Igx9ZXW2V1UubcK3LmR7E5de3lJVSlGpu57H+BDpVp0t7DzlcPMz2q8Va1qtknPLnVU38WmpuEUvHt0v1mEhl5dUlKvKtjJdTjNp/Yem7R9Vx6Pwi7TcmunbdzlXJJLwt7dBjj3FQSxFLHgY5ObeZN58SicO8dZmNdVj6pa78aTUe6y6Z1+Nv85eHfpLNGSklKLTTW6a6mjlUvHAuoyztCqrnLezFm6enr5q6Y/Y9vURLmlFJTisd5Nta0m3CTzwymbmefKysfCx7cjItjXVXHeUn1JHoI5yhazO/MhpdU2qqEp2pfnWSW6T8if2mCnTdSaj95JrVFSg5dvJLxPnrPKDn5Nk6tMiseldCsklKyXj6eiJpORqmpZTbvz8ix/37JP2s8J6MXEyc2+FGNRO22XVGK3ZsYwhBcIpeJqpVKlR8ZN57D+Y5ORFpxyLE12qTRnMHivXtPknXqNlkV+Zc+6Rfi+N0r1HxzuGtc02ju+Vp84VLrmnGaW/h5re3rMGffqTXZJfefM1Kb5yi/uL5w3xdia7tRZFUZiW7r33jNLrcH/I285ax77sW+q+mxwtrkpQkutNHSWjajDVtMw82KS7rD40fBJdEl6miDXoqm1KPov8DY21d1E4y9JfiZMknHfEeZXmvS8S+VVdcIu6UHzZSlJbpbrsSK2c88Y/OXVfPj7iFtFSqPKzhZF3KUaSw8ZeGYbH1DPxbY20Zl1c09+dGbRfuGNYlrekU5NiXdoydd23QufHt9aaZzqWbk23/FOct+j8KfuIz3MU6eccUyNaSkqm7ng0+BRSe8d8Q5Wl1Y+Fh2Ou6+LlOxdEowXQub4G/CUIinKR38xfQoe/MjW8VKqs8uZLuZONKTTw3hGkLMzI2K2OXcrE91NTfO38O5YOFOK1kaTm2apeudgqLla+ucJfk+WW628ZFj+1ZOMJwUmoyacl2PbqJ1SnGosNe819KrKlLKeeD4G46zxvq2o2Thi2yxMbfaMa3tNrwykunfxI1KWVkzk5SyLHJ9bc22fzDHvtjKddM5Rj1yjFtLy7HyPUYwisRSR4lOc3mUmzZdK4s1rSrIuOVO6nf41NsnKLXib6Y+ouekarjazgU5mO/iz6JRfXCS64vyHM5SuTbNlDNz8Jt8yypWpeCUGl9qf2GC4pRcHJLDRJtq0lNQbbT/AsIAIBsgajxrql2l6JZKibhbfZGmMk+mKkm216kbcTrlJ71YHpX3GZKSTqQT7zFXbjSm1zwRkoHJ9ql2Pq34vc26cmEmo9inBc7deVLpJ+bXwR86NM/wAb/tSNhVSdOee5mrotqrTx+8l950AADVm5AAAAAAAAAAAAAAAAAAAAAAAAAAAAAAAAAAAAANQ13jLTtFueMq55GRHbnQg0ox3+lJ9viNa+Ez9CfxH/AANRca9pNrVlSq3kVOLxJKMpYfd9VM29voOr3VKNWlZScJLMW5Rjld/1miqAlfwmfoT+I/4D4TP0J/Ef8DD+s2ifxv8A1z/wZ/1Z1z+B/wCyH+SqAlfwmfoT+I/4D4TP0J/Ef8B+s2ifxv8A1z/wP1Z1z+B/7If5KoYvW73i6Rqdye0oY1ji/wC9zXt9pP8A4TP0J/Ef8DHarx89T07Lw1pXcu7Q5vP7tztunwc1GC52l0h29dU7zNR05KC6Oay8cOaM1ts1rCuLd1bPFNVIub6SDxHPHtJ4ACri1DoXhPChg6Bp0YxSlbWrpvtbs+N0+RdB5uNsarI4dzZTinKlwsg/A+cl7HsZ3S4uOmadFrZrGqT8qij+9Qw4ahhZeJY9o3Vyg34N11+ouJ2inpDtIRXG13Ip9+7hFMq7lDV1dzk+F10kmu7eyzmM9GJOVeVizj+VG2El5UzL5/DOt4F0656fdZFN7WVQc4NeHePVv4zPcMcI6jkahj5ObizoxqZqbVi5spuL3UVF9O3h8RV1vpt/Uu6dBW1WM99J5i1u8eb8EWpc6nYU7SpXd1SlT3G1iSe9w5LxLWTDlL+Q0jz7fZEp5MOUv5DSPPt9kSyNpPUt95Q+dFa7N+u7Hzn8jJMe7TcKeo5+JhwezutjHfwJ9b9S6Twm28DwUuJcBv8ANja1+w0VhY0Y3F7aUZejUrQi/JvDLRv60reyu60fSp0ZyXmllFvwMDE03GrxsWmNdcFtsutvwt9rfhJ/yi6Zj/gmNqMIKNytVU2ujnRkm1v41sUw0XlC7ww9Kr9ki0dboUf0NeQ6OKjClmCSwouPLBVmh1636as59JJynVxNt8ZKXPPeREzXDnf7SPSq/aYUzXDnf7SPSq/aVbZ/tlp9tD5kWre/sd39jP5WdHE45SOf+LtP2T5n4Q9/BvzXsUc8edg4upYtmLlVKyqfWn4V1NPsaLe1O0lfWFzbQmoyqRwm+WU88SntMu42N/a3M4OUac8tLnhrHA5jM/wvhxzte02mcedDunPkutbVpz6fE9tjfbuTXFlY3RqlkIb/AJM61N7eVOPsNn0HhbT9Bc7KnK3ImubK2fWl4IpdSOEsNmNSV7QlcUoRowqRlJuSe8k84SXed5qG1Gmysq8berOVadOUYrda3XJYy2+42Um/KTXS8DTrXt3VXuMfDzXHd/akbTrHEulaKmsi/nXbdFNfxp+vwesivEGv5Ov5cbrIquqtONVSe/NT6232t9rN/tLqlnCxuLPpIzr1MLcXHdw85fcaDZnS72pfW950cqdCnl774b2VjC7zAGx8JTcOI9Ka/wDNcf2otfzNcNg4W+cOk/r17DgNPbV/Ytc1Xp/MiwdQSdhfJ8ugqfKzognfKR3rwfSvusohO+UjvXg+lfdZaOv+p7/2F8UVXs/65sPtH8GRs/T8Mlo+CtS1TBxG2o22xjJrrUet/YVLTpyq1KdOCzKclFLxbwW7VqQpU6lSbxGEXKT8FxPrp+havqsXPDwbLILo5/RGO/g50mkbHgcAa1kWxWWq8arf4zc1OW3iUd1v5WWmmmrGqrpprjCuuKjGMVskl2H1LEttkLCmqbr1atSa9JJqMX+GfxK4udsL+o6ioUqVOD9FtOU0vvx+B5MHDo0/Ex8THjzaqoqMV2+NvxvrZAOKL3kcQatNvfa+UP3fxP5HRRzRrEnLVtUk+t5dzfrmzDthinZWNGCSh0jxFcluxwviZ9js1L6/rTe9N01mT5vell/AxxQuT3TK8rUMnNtgpLFjHmJ9XPnvs/UkT0sPJvBLTdQn2vIS9Siv9TmtnKMK+sWqmk1Henh98VlfidNtLXnQ0e6cG1KW7DK7pPD/AAKFfRTk020XVqddkXGcX1NM5u1fAel6nm4e7aqsai31uL6Yt+VM6WIZx/XGHEM5Lrsork/L+T/I6rbC3hOyoXG6t+nVUc/yyT4fejlNjricL6vb7z3KlJyx/NFrj9zNKKfyafL6v5lXtZMCn8mny+r+ZV7Wcrs566sfOfyM6zaT1JfeUPnRWSG8f3u3iCVbfRTRXBeveX8y5EA40kpcTam14al9VcUdfthNx0umk/SuIp+WG/yOO2PgpapUbXo28mvPeS/M1YoPJ3hV36pk5M4pvHp+Jv2Sm9t/qTJ8UDgLU9P0y7UnmZUKVZCtRcu3Zvc4rQuhWrWTrSioRk23JpJNJtc/E7bXumekXqoxk5ygopRTbackny8C0EI46wq8PX7XXFRjkVxuaXVvJuLfra3Kx/1Vw9/9Wo+tkp451DD1HVse7DyIXVxxIQco9Skpye32nYbU17O40z6lxSnONWLioyTfc+Rx2ytveW+qZnb1YQlSkpOUGl2NczTCs8muQ3TquO30RnXYl5yafsRJilcmzf4bqa36HTB7f+45XZubhrVnjtc0/JxZ1e0sFPRbzPYoSXukivHN/Enf/WPSrPadIHN/Enf/AFj0qz2lx2vpy8imL30Ie0YQonJ7pNWXnZGddWpRxVFVp9XdJdv/ALUidlr5Oa1HRMifbPLn9SjFEivJxpSx28CLbRUq0c9mWb9OMbIyhOKlGSaafSmn2M5q1vCjp2rahiRW0KrpKHmvpj9jOlyA8cwUeJs9/SjU/wD7aX8iPat78l2NEq9S3IvtUsGpFS5M7mrNWo36HGqaXk3T9pLSjcm0n+NM+O/Q8bd+qSJNdZpTIlu8VqfmWU5j1TJeZqWfkt791vskvI30HTFsnCqyS64xbXqRywYLRcZvyJN6+FNeYLDyb4EIYWbnuP8ASW29yi/BCCTe3lb+wjxeuA4pcN4rS67LW/2mjJctql5tIw2iTreSbNusrhdXOuyClCcXGUX1NPrTOZdTxPwDUc7F6dqb5wTfaovZP1o6dOeOL4qPEmqpLb+ki/W4pmG0b3pLwyZ71Ldg+3ODWyy8m+S7NMzsdv5LIUl4lZHq+tEaKlyZS2s1mO3XGh/Vzv8AUkXCzSl4YI9q8Vo+OSsnPPGPzl1Xz4+4joY554x+cuq+fH3ERrX05eySbzq4+0a0Wbk271Z/pX3ERks3Jt3qz/SvuIkXHVPzRHteuXkyikU5SO/mL6FD35lrIpykd/MX0KHvzI1t1q8mS7vqX5on5sXC2kR1rWKMaxPuME7btu2Eez1tpGulJ5NYp6hqMtulY8UvI5f/AIJlWTjTm1zwa+jFSqwT5ZK9VTVj1QqqrjCuC2jGK2SXiSIzyhaXRhahiZVFagsqE+fGPQnODW728afSWolXKd/Yn+Y+4QrdvpY8eecmxukuhlw5Yx95KTdeAPnFX+os9hpRm+H9Y/EWoxzfwfu20JR5nP5n5XbvsydUTlCaXNo1tNqNSDb4JrJ0gCVfCd+hP4j/AID4Tv0J/Ef8CB9HrfufijZ/SaH7/wCDKqTrlJ71YHpX3GY/4Tv0J/Ef8DXOJeLv+ocWjH/F/cO529053defv0Nbbc1eEyUqNWNSLccJPvRirV6U6U4qfFrhwZphtfBHzo0z/G/7UjVDK6Jqf4m1TFz+4d17lz/ic7m786Lj17PwkyabhNLm00QINRqQb5KSb+86WBKvhO/Qn8R/wHwnfoT+I/4Gv+j1v3PxRtPpND9/8GVUEq+E79CfxH/Ayem8omnZdsasvFnic57KfOVkF5z2TX1Hx0KqWdwK4otpKf4NFCB+JppNPdM/TEZwAAAAAAAAAAAAAAAAAAAAAAAAAAAAADmHOnZZm5c7W3ZK6bm317t9J5SxcRcC/jHKtzNPvhVZa3KyuzfmuT62mt9t+01f4Pde+ni/vH/oVPd6Bq1K4qxVrOqt5tTjxUl3ltWe0Gk1belJ3UKT3UnCXBxeORooN6+D3Xvp4v7x/wCg+D3Xvp4v7x/6Eb9Cat/x9b+0k/pvSP8AkKP9xooN6+D3Xvp4v7x/6D4Pde+ni/vH/oP0Jq3/AB9b+0fpvSP+Qo/3Gig3r4Pde+ni/vH/AKHi1DgvWNMw78y+WP3KpJy5s230vbo6F4TzPR9UpwnOdjVUYpuTceCS5s9w1nS6k4QhfUpSk1GKUuLb4JGpAA1psjp7A/qOH+or91HqPLgf1HD/AFFfuo9ReNLqqfsr4FF1etqe0/iAY/L1XTMGahlZ9FM2t1Gc0nt4dj74uZiZtfdMXJruhvtzq5KST9QVajKbpqrBzXOKksr3B0a0aaqOlNQfKTi8P3npJhyl/IaR59vsiU8mHKX8hpHn2+yJp9pPUt95Q+dG42b9d2PnP5GSY2/gX5yYfmW+4zUDb+BfnJh+Zb7jK20n1pp39RT+ZFl6v6q1H+nqfKXk0XlC7ww9Kr9kjejReULvDD0qv2SLR1v1TqH2MirdE9b6f9tEiJmuHO/2kelV+0wpmuHO/wBpHpVftKns/wBstPtofMi2r39ju/sZ/Kzo4Axur6lVpGn5Obat1XH4sfpSfQl62XTUqQo051KklGEIuUm+xLiUnTpzrVKdOnFynOSjFLtb4I/jVda07RaVbmX81vfmVx6Zz8i/n1Em1njvU8/n1Ya/BKHut4veyS8cuz1GpahqGVqeXblZVrnZN+pLsSXYkeIrPVNpby9lOnbydGhyWOEpLxf5Is7StmbOyjCpcRVevzblxhF+C7fNn625Nyk223u2+0bPZvboT238ptvDfCWXrjV9jdOEns7NvjT261Bfz6jbONdMwdK4bw8fDoVcFmw3fXKT5k+mT7WQaOi3dWxr3010dGEN6O9zn5Lu8SdW1q0pX9vYU30lac1GW7yh5vv8CSmwcLfOHSf169hr5sHC3zh0n9evYQrD9usvt6fzInah+wXv2FT5WdEE75SO9eD6V91lEJ3ykd68H0r7rLS1/wBT3/sL4oqrZ/1zYfaP4MjZsvCHzk0vz5e4zWjZeEPnJpfny9xlX6d6xsP6il8yLT1L1df/ANPV+VnQYALoKUBzPq3fTUvSrveZ0wcz6t301L0q73mcVtp1Fj9pP4I7bYrr7/7OHxZjyycm/evO9K+6iNlk5N+9ed6V91Gi2V9cUfs5/A321fqat9pD4lEIjyhd/oei1+1luIjyhd/oei1+1nWbW+qf/dD8zktkfW//AKZ/kaKU/k0+X1fzKvayYFP5NPl9X8yr2s4zZz11Y+c/kZ2u0nqS+8ofOisnPnF/zk1Tz4+4joM584v+cmqefH3EdXtl6utv6hfKzktjPWNz/Tv5ka0Abjwhw9ha/ZnRyrboKmMHHuTit+c3185PwHA2lrVvbinb0UnUnndy8LgslgXd3RsrepcVm1Thjewsvi8fmacC0/Bzon/qs39uH+wfBzon/qs39uH+w3n6qav+5S/vNF+tmj/v1f7CLFU5NsWa/GeW4tQfMqi/C1u39XQZmrk80GualKzKsX0ZWRSf7MUzc8XExsKivHxqY1VQW0Yx6kbjQ9m7uzvqd1cyglTT3YxeW21jj4cTTa5tLaXljUtbWM26jW9KSwkk88PHgeg5v4k7/wCselWe06QOb+JO/wDrHpVntLCtfTl5FdXvoQ9owhcOTvvBP0qz2RIeXDk77wT9Ks9kTNc9V70R7Trv/Fm9kE47+cuZ5lXuIvZBOO/nLmeZV7iMFr1j9kk3nVL2kaeUXk2765/ov30ToovJt31z/RfvolVuqn5EO366n5lhyPkLvMl7Dlk6myPkLvMl7DlkwWnKp7iRe86fvBe+BPm1h+fb77IIXvgT5tYfn2++z3ddWvaRjs+tfss3A554x+cuq+fH3EdDHPPGPzl1Xz4+4jDa+nL2TPedXH2jWiocmfy+r+ZV7ZEvKhyZ/L6v5lXtkSa/VT93xItv19P3/ArZzzxj85dV8+PuI6GOeeMfnLqvnx9xEa19OXskq86uPtGtFm5Nu9Wf6V9xEZLNybd6s/0r7iJFx1T80R7Xrl5MopFOUjv5i+hQ9+ZayKcpHfzF9Ch78yNbdavJku76l+aJ+Uvk0/r2p/qIe8TQpfJp/XtT/UQ94l1+qn5EG366n5lgJVynf2J/mPuFVJVynf2J/mPuEK366Hv+BsLnqJ+74kpAMlpOlZWs5kcTFcFY4yl8d7LaPk3Ni2km2+Bqkm2kllsxoN7+DzX/AKeL+8f+0fB5r/08X94/9p46Wl++jJ0Nb/bkaIDe/g81/wCni/vH/tMPrPC+paFRVflypcLJ8xcyTb3237UvAfVUpyeFNNnx0qsU24NJGuAHv0zTsjVs6jCx3FW287m897L4sXJ7vp7Ee20k2+SPCTbSS4s8AN7+DzX/AKeL+8f+0fB5r/08X94/9pj6Wl++jJ0Nb/bkaIDe/g81/wCni/vH/tMnpvJxku2MtRzK41J7uFLcpS8W7S2+0+OtSSzvo+qhWbx0b95vnCk7bOHdJla25dx26foptR+w2E+dVVdFVdVUFGuEVGEV1JLoSPoa2TzKT72bWK3YxWeSSAAPh6AAAAAAAAAAAAAAAAAAAAAAAAAAAAAAAAAAAABrfFycuHNVSX/hxf1STNkMRr1DydE1WpLdvGsaXhajuvYRb6DqWV5Bc5UaiXviyVYzVO+s5vlGtTb90kc3AApQu46Z0uTnpmnSb3csapv1xR+6nmLA0/Ny3t/Q0zmk+1pdC9bMXwplxzOH9MlGW7rqVUl4HX8X2I+HGd0aeHNR3ls5qEI+Nykuj6i43cqOkO6hLla9JF+O7lFMq1ctXVrOPO66OS8N7DILffbk3W3XWOdlknKUn0ttmX4d1S7SdVxLoWNVynGF0d+iUJPZ7+TrRgz1YNUr83Dpj+VZdXBeWUkio7erVhc0atOT6VVE088c5LeuKVGdtWpVIronTaaxwxg6eJhyl/IaR59vsiU8mHKX8hpHn2+yJaW0nqW+8ofOiq9m/Xdj5z+RkmNv4F+cmH5lvuM1A2/gX5yYfmW+4yttJ9aad/UU/mRZer+qtR/p6nyl5NF5Qu8MPSq/ZI3o0XlC7ww9Kr9ki0db9U6h9jIq3RPW+n/bRIiZrhzv9pHpVftMKZrhzv8AaR6VX7Sp7P8AbLT7aHzItq9/Y7v7Gfys6OJnyk5Lji6Zip9Flk7JLzEkveKYSTlK534TpXVze52beHfdbln7SzlDRbzHbuR9zkslXbNQjPWrPe7N9+9ReCZGV0PAjqerYGHLfmW2Ln7dfNj8aW3qRijZOEb4Y/Eelzm9k7JQ9dkHBfaysbGFOpe2cKmOjlWpqWe5ySZaF9OpTsrydPPSRo1JRx3qOUdAVVV0V11VQUK4RUYxS2SS6kjQ+UaSWjYkd+l5kWvVCX+pQCRco2o125OHp9ct3SnZbt2Sn+SvKl0+ss/aKrToaPdJ4W9FQiu9t8l7irtnaVSvrNo1l7snOT7klzfvJobBwt84dJ/Xr2GvmwcLfOHSf169hWNh+3WX29P5kWhqH7Be/YVPlZ0QTvlI714PpX3WUQnfKR3rwfSvustLX/U9/wCwviiqtn/XNh9o/gyNmy8IfOTS/Pl7jNaNl4Q+cml+fL3GVfp3rGw/qKXzItPUvV1//T1flZ0GAC6ClAc06zHmaxqsd9+bl3LfyTZ0sc78VUPH4h1WDXXc5/vFz/5nG7ZwbtLOfYqrX3r/AOHZ7FzSvLyHa6Kl9z/+mvlg5NrE9P1Gvo+LfGX7Udv5EfKJyd6jXj5+Xh2TUfwmEXXu+hzr36F42n9hzGzdaNHWLRyeFLehnxkuH4nT7S0ZVtGu1FNuO7PHhGSz+BZCG8f2KfEM4r/w6K4v1/G/mW2++nGpsuusjCquLlKTeySRzfrGoPVNUzc1ppW2NxT61FdEU/IkdVthcQhY0LfeW/UqqWP5Yp8fvZyux1vOd9XuN17lOk45/mk1w+5GMKfyafL6v5lXtZMCn8mny+r+ZV7Wcrs566sfOfyM6zaT1JfeUPnRWTn/AIzjzOJtTS8Nb+uuLOgCF8e0uriK6e3ytNU149lzPunXbYRctLpNL0biLflutHH7HSUdUqpv0reSXnvJmllP5Nfl9W8yr2smBv3J5lwo1i6ibS7vQ1Dxyg+dt9W5xuz8409ZsJSeFvuPvkml8Ts9oYSqaNfxisvcUvdGSb+BajROMeKbtF7jiYaj+E2w58pyW/Mhvstl2ttdpvZBON8qvJ4iy+5y5yqjCpvxxXSvU3sd7tJfVbHTXKjU3KlSagpLmlzePuOA2asaV9qSjWp79OnTc3F8m+Sz958ocZ8Swnz/AMZN9PSnXDZ+rYrXC+v/AI/wJW2QjDIqnzLYx6unpUlv2M59KvyaQkq9Ym/yXKlLyrnb+05fZrU7+eqUqFS5qVKdSM95Tk5YxFtNZ5cjqtptMsKel1a9O2p06lOUN1wio5zJJp458yonN/Enf/WPSrPadIHN/Enf/WPSrPaWla+nLyKpvfQh7RhC3cnUk9BuS/Ny7E/2Yv8AmREqfJtnwjLUcCckpS5t1a8O3xZfyM9ws0n4YZGtWlWj4porBA+OmnxLm9PVCpP9hF8OceJsuOdr2qXwlvF3OEWupqtKCf2Ee1X15P8AlJN4/wD84rvkYIo3Jsn+NM97dH4L95E5KhyZ1N36tb2RhVH9pt/yJVfqp+REt1mtT82Ve6LlTbFLduDS+o5YOqzl/Px3iZ2ZjtbOq6yH7L2MFo/TXkSb1dW/M8he+BPm3ifrLffZBC08nOVG3SMnG3+PTkN7f3ZpNfamZLlZp+TRitHit5xZQjnnjBp8Sars9/6SPuI6G6us5n1rKjm6vqWTB7wsyLHB+GO+y+ww2q+vJ+BmvX9SC8TGFS5MovuusS7FGlfW5f6EtLDya47hgalkNdFl8YL/AA47/eJFw8Upe74ke2Wa8PDPwKUc88Y/OXVfPj7iOhjnnjH5y6r58fcRGtfTl7JJvOrj7RrRZuTbvVn+lfcRGSzcm3erP9K+4iRcdU/NEe165eTKKRTlI7+YvoUPfmWsinKR38xfQoe/MjW3WryZLu+pfmiflL5NP69qf6iHvE0KXyaf17U/1EPeJdfqp+RBt+up+ZYCVcp39if5j7hVSVcp39if5j7hCt+uh7/gbC56ifu+JKTdeAPnFV+ot9hpRuvAHziq/UW+wnVern5M1tHraftIuwANWbkE65Se9WB6V9xlFJ1yk96sD0r7jMtHrYeZhuOpqeRGTa+CPnRpn+N/2pGqG18EfOjTP8b/ALUjYVOrqeyzV0utp+0vidAAA1RugDCZGtRjk2YmFh25l9e3dVXzYwr37Jzk0k/F1n8w1vuV9VGoYN2FK2SjVObjOqcn1R58G0m/Az1uy7v8njfj3+/sM6ADyewAAAAAAAAAAAAAAAAAAAAAAAAAAAAAAAAAAAAAAAfjSknFrdNbNH6ADmvWtOnpOp5eJKLShN9zb7YPpi/qMWdAcS8NUa/RFqSqy61tVa+prr5svF7CLaloWq6VKSy8KyMU/lEudB+SS6CqNZ0W5064qShSlK2k24TSyop9j7sFs6LrdtqNvSjOrGNzFJTg3hya7V35Pto3EWp6E7PwSyLrm95VWLnQb8PZs/IfmscQ6nrjh+F2x7nB7xqgubBPw9u78pgz96zV/Tbv6P8ARvpNToP9vee79xtPoNn9I+lfRqfT/wC5ure7uZ+G8cCaVPN1eOXKP9DifHb26HN9EV6us8Oj8Iavqs4N0Sx8d9d1sWuj+7F7N+wtul6ZiaRh14mLDaEelt/lSk+uT8bOh2e0O4uLmldV6ThQpyUo7yw5yXLC7jndotdt6FrVtaFWM69SLjLdeVCL55ff4GRJhyl/IaR59vsiU803jfSL9U0mMseDndj2d0UF0uUdtpJLw9p2eu0alxpN7TpxcpOCaS5vdal+Rxeg1qdvq9lUqSUYKbTb5LeTX5kJNv4F+cmH5lvuM1FpptNbNdDTKVyfaPkPLnqltbjTCuUKm1tz5S62vEkVtolGpW1WxUIN7tWM5eCi8tssvXK9OjpN85yS36UoR8XJYSRXTReULvDD0qv2SN6MBxPplmr6Nl41S3u6J1rwyg99vWugtDVaU6+m3tKmszlRlurveORVulVoUNSsatSWIRrRcm+xZ5nOxmuHO/2kelV+0xFldlNk67IShOLalGS2aa7GmbnwRo2Rm6tRmOtrGxpc9za6HNfkxXhe/SyqNNoVa2oWlOEG5dLFtdyTy2/ItnUq9Kjp13UnNKPQySeebawkvMuROOUfClbgYOZGO/cLZQlt2KxLpfrRRzzZmJRnYt+LkQ51VsHGS8vg8a7C2dSs/p9jc22cOcfqt9klxX4oqTTbz6Bf21zjKpz+sl2xfB/gzmA/U3Fpp7NdKaNl13hbUdFtsfcpXYu/xL4Ldbf3tupmslP3FtXtKsqVelKnOL4pr4Fx29zQu6UatCrGcJLg0/j3G5LjziGOMqe7Vc5Lbuzr3n/pv6jUbLLb7LLbJynOTcpyfS22+ts9GFp+bqNypxMads32RXQvG31JeUqVPA7x+Hc+huE9RvjGXOXVFwfOVcW/D2s2tC21fW4ycp1atOjCTUpttZS4RWebZqa9zo+iSio06VKpWqRUlBJPDfGTxySJCZjh63uGuaTPs/Cq0/JKW38zF3U20WTqtrlCyD2lGS2afjTMxw7puTqWrYVdNcnGFsJ2TS6IRi922+zq6PGa2zjV+mW0YQbqKrHEcccpmyvJ0vodzKc0qbpSzLPDDR0YTvlI714PpX3WUQ1bi/SbdX0ayuiPOupmrq4rrk4pppep9BbGs0alfS72nTi5TdN4S5vHHBUui1qdvqtjUqSUYKost8lnhlkANl4Q+cml+fL3Ga5KMoSlGUXGSezTWzTXhN/4B0fIv1KOpTrccfHUubJrolOS5uy8Oye5V+kUatfVLGEINuNaEn4KLy2y0tXr0qOl305zSTozjHxclhJeZZwAXGU0CQ8oumSry8XUYR+JbDuVjXZOPSt/KvYV48efg42pYl2Jk18+qxbNdq8DXgaNZq+nrUrGrb5SnwlBvskuX+DZ6RqD0y/o3GG4LMZpdsXz/wAnMZ+puLUotpp7prsN21XgTV8KycsSH4XRv8VwaU0vHF9vkMAuH9dcub+J8vf9TLb69tiq62m6hb1HCpZ1VJPsi2n5Ncy1qOp6fc01Up3lJxa7ZJNeafI8mRqOoZcI15OfkXQXSo2WSml5E2eSUJxUHKLSkt479q323XrRvWj8B6pl3Qlnw/BsdPeSbTskvAkt9vKzz8dY9OLrGPRTWoVV4dUYRXUkmyRW0y+hZTvbqM4LejCKnnelnt49iI9HU7Gd7TsbWUJvdlObp43Y47OHBtmllP5NPl9X8yr2smBT+TT5fV/Mq9rM2znrqx85/IzFtJ6kvvKHzorJMuUbTJWUYeo1x3VTdVvijJ7xfkT6PWU0+ORj05VFtF1anVZFxnF9TTLL1KyjqFlXtm8Oa+q+6S4plY6Zey06+t7lLKg/rLvi+DRy6fWm63HtrupslCyElKMovZprtRu2ucDajg2TswISysZvdKPTZHxNdvlRpFlVlM3C2uUJrrjJbNeplR3VleWFXcr0Z05RfCXY8dqfaW9a3tnqFJToVoVItcY9qz2Ndht9nHnEFmM6O61Rk1s7ow2s9uyfkRprbk3KTbbe7b7T8PTjYeVm2KrGx7Lp/RhFyfr2Ple6vL6VNVq1StJcIptyfuPtG0srGNR0aNOjF8ZtJRXvPMX3gzS56XolKti43ZEndNPrXOWyX1I1rhrgaVNtWbqyXOg1KvG33W66nN9XqKgdxsxota1lK8uYOE5R3acHzSfNvuOG2o1uhdxjZWs1OEZb1Sa5Nrkl3g5v4k7/AOselWe06QOb+JO/+selWe07219OXkV/e+hD2jCH3xsnIw76sjHtlXbW94zj1pnwN/0nhda9w13bHcYZlORYouXQpx2T5rfZ4mTJyjFZlybwQYQlN4jzSyeLJ471/JxZY7sqr50dpWVw5s2n499l6jTT15mDmafc6cvGspsXZNbb+NeFeNHkEYwivqpJPuPkpTk/rttrvBceT/AliaI75x2llWua3+hH4q9jZPuHOEc3WLq7b6p04SacrJLZzXghv17+HqLvVVXRVXVVBRrhFRhFdSS6EiNc1FjcT454ky0pPPSSWFjgfQiPH+kzxNVWdCP9DlpNtLoVkVs1610luPBqWnYuq4d2JlQ51c12dcWuqS8DRGpVOjmn2cmSq1PpYOPbzRzGZHTNVztHyVk4d3MnttJNbxkvA0+sz+s8F6tpk5zpqllY2/ROtbyS/vRXT9XQahKMoNxlFproaa2aNknCa4NNM1TjOnLinFo27UOONd1DGnjSnVTCcebN1RcZSXat23tv4jUAe/C0vUNSmoYeHbc99t4x6F5X1L1hRhBPCSR8cp1GstyZ4oQnZOFcIuU5SUYxS3bb6EkdH8PaZ+KNIw8R7d0jHnWP+/Lpf1dRrPC3BcdKshm58o2Za/IgumFe/bv2y9hQCFcVVPEYvgu02FrRdPMpLi+S7kDnnjH5y6r58fcR0MRXj/RsjH1OepQrcsfIUedJLohOK5uz8G6W58tmlUee1H28i3STS5SyyfFm5Nu9Wf6V9xEbjGU5RjCLlKT2SS3bb7EdAcH6TdpGi1VXx5t1s5XWRfXFySSXl2XSSLlpU8Z4tka0TdXOOCTNpIpykd/MX0KHvzLWTDlD0fIyI4upUVOaqg67klu1HfdS8i3e5Gt2lVWe3gS7pOVGWFyaZIyl8mn9e1P9RD3iaFp5P9HyMDDyszJqlCeS4quMls1CG/Tt42yXcNKlLPbwRBtot1otLllsoRKuU7+xP8x9wqpo3Hmj36nptN+NW524s5S5i6W4SXxtvC+hPYhUWo1YNmwuE5UZpLjw/BkNN14A+cVX6i32GlNbdDKnyd6PkQuyNUurlCt1dzp5y253OabkvEttidWaVKee1YNbQTlWhhcnllYABrDcAnXKT3qwPSvuMopq3GGk3avottVEeddVON1cV1ycU015dn0GSk0qkG+WTFWi5Uppc8HPptfBHzo0z/G/7UjVZRlGUoyi1JPZp9DTRROT7R77tR/Gc63GiiMo1ya/KnJc3o8ib3NhVaVOeX2NfeauinKrTwuUk/uLMeLU8ieHp2oZMPy6ce2yPlhFtHtPPlY8MvFyMaf5F1U65eSa2ZrFjKybh5w8c8GiavB6PpHD9EM+zFjbkw/CsiuXNlJzi5Tm327vpP60XfVrtb02WfbqGlumKjkWr40bJdajLZb7dfiPTXCGetJwNQyY4+dpt8JyhOO6yI1rmqUG2t1L7Gf1JV6DlajXp2VG67OlzqNPjHd12voc90/iw7XuiRng4/6uaePHmRcfWUv9HJrPhywZ3h/Jty9G0+26XOtdfNnL6Tg+a369tzMng0vBWm6fiYilznVWoyl9KXW362e8jyw5Sxyy8EmKajFPnhZAAPh6AAAAAAAAAAAAAAAAAAAAAAAAAAAAAAAAAAAAAAAAAAPHZp2n2vezBx5vwyri/aj+qcLDx3vTiU1vwwhGPsR6gY1SpKW8qUd7vwsmR1arjuupLd7svAABkMYAAB5LMDBus7pbhUTn9KVcW/raPUkktl1H6DyoQi24xSb54XM9Oc5JKUm0uSb5AAHo8nluwsLJkpX4lNsl2zhGT+09EYRhGMYRUYpbJJbJH9A8qEFJyUUm+bxxZ6c5uKi5Npck3wQAB6PIPFPTdOtk5WYGPKXhlVFv7Ue0HmUITWJwUl4rJ6jOcHmE3F+DwfxXXXVFRrhGEV2RWy+w/sA+pJLCWEeW23lvLPNfh4mS078Wq1rq58FLb6z61U00QUKqoVxX5sUor6kfQHxQgpOSgt583jienObioub3VyWeAAB6PJ5bcHCvnz7sOmyf0p1xk/raPTGMYpRikkuhJdGx+g8qEIttRSb5tLmenOckk5Npck3yAAPR5B/FltdNc7LbIwhFbylJpJLwts/slnKRm3x/F+HGbVU1KyaT6JNNJb+QganfLTrKtcuG/uYxHllt4RP0yxlqV7RtVPc3225c8JLLNu/6w4bVvcvxpDnb7b82fN/a22NhrtrurhZVZGcJJOMovdNPtTRy2UTgXiKrAst0/NvUMex86qU3tGE+1NvqUvacxpe1c7m7hQvKVKnCbxGccpJ9mct8zqNV2Tha2kq9nVq1Jw4yhLDbXa1hLkWQh/KDJPX0k/ycatP62yw5Op6dh0u6/NphWlvu5rp8i7fUc+67qX431XMzVFqNk9oJ9ahFc2O/j2XSZ9rrqirGlbqpF1J1VLdT4qKT4mDZC1rO/q3DpyVOFJx3muDlJrgYgp/Jr8vq/mVe2RMCxcnGHKrT87KktlfdGMfGq11/XI5jZmnKes2rS4QU5S8FutfmdRtPUjDRbpN8ZuEY+e8n+RRgAWsVOD52U1XLa2qE14JJP2n0B8aTWGso+ptNNPD7zwfirS99/wAW42/6qP8AoeyFddUVGuEYRXZFbL7D+weY06cOMacYvwWD1KpUmsTqSkvFtgAHs8A5v4k7/wCselWe06QOb+JO/wDrHpVntJVr6cvIh3voQ9owhcOTvvBP0qz2RIeXDk8X/wAgn6VZ7EZrnqveiPadd/4s3eyqq6PMtrjOP0ZJNfaeavTdPpkpV4GPCXhjXFP7Ee0Gvy12mzwu4AAH0AAAHwuxcbI+Wx67Oz48VL2n3AHM8MdL0yD3jp2NF+FVRX8j2pKKSSSS6kj9B9bb5s+JJckAAfD6D8lGMk4ySaa2afUz9AB5asHConz6cOmuf0oVxi/rSPUAMthJIAAA8a0/AjZ3WOFQrN9+eq487fy7HsAGW+0+JJckAAD6eSen4FlndZ4VErOvnyri5fW0evq6gBlnzCXYAAD6AAAeG/S9NybO636djW2fTnVGUvraPZGMYRUYRUYpbJJbJI/oH3L7z5hLsAAPh9PLlYOHnQUMrEquiupWQUtvJv1H84mn4OApLEw6aU+vucFHfy7dZ7AfcvGM8D5hZzhZ7wAD4fQAAAAAAAAAAAAAAAAAAAAAAAAAAAAAAAAAAAAAAAAAAAAAAAAAAAAAAAAAAAAAAAAAAAAAAAAAAAAAAAAAAAAaPxzod2q4FWRjQc78VyfMXXKEtucl4WttzeARb20pX1rWtqudypHDa5p8015MlWV3Vsbqjc0sb9OWcPk1ya96OWGmm0109p+HQuqcKaLq05WXYzrufXbU+ZJ+N9jflRqV3JrU23Rq0orsU6lL7U17CurnZTVKM2qMYV49jjJRePFSwWNa7W6VWiumlOhPtUouSz4OOSTgqEeTS3dc7WIpeFUt/eRlcTk60umSlk5d1+35q2ri/Ltu/tMNPZjWakknbKC/elOOPwbZnqbUaLTi2rlzfdGEs/ikiX6Ro+ZrWXDHxq31rn2NfFhHwt//ALudD4GFTp2HjYdC2rpgorwvwt+NvpZ/WHg4mn0qjEx4VVr82K23fhfhfjPUdvomiU9JhOUpqpXmsSkuSXcjhtb1ypq84RjB06FN5jF82+9gAG+NCAAAAAAAAACK8ccP5dGpXajRRKzGv2lNxW/Mnts+dt1J9e5agZKdR05ZSz3oxVaSqx3W8dqZy7i4eVnXRpxcedtkn0Rgt/8A+I6H4d0t6PpGJiTadkU5WNdXPk93t5OozYPdWs6qSxhI8UbdUW3vZbWO4AAwEgAAAAAAAAAAAAAAAAAAAAAAAAAAAAAAAAAAAAAAAAAAAAAAAAAAAAAAAAAAAAAAAAAAAAAAAAAAAAAAAAAAAAAAAAAAAAAAAAAAAAAAAAAAAAAAAAAAAAAAAAAAAAAAAAAAAAAAAAAAAAAAAAAAAAAAAAAAAAAAAAAAAAAAAAAAAAAAAAAAAAAAAAAAAAAAAAAAAAAAAAAAAAAAAAAAAAAAAAAAAAAAAAAAAAAAAAAAAAAAAAAAAAAAAAAAAAAAAAAAAAAAAAAAAAAAAAAAAAAAAAAAAAAAAAAAAAAAAAAAAAAAAAAAAAAAAAAAAAAAAAAAAAAAAAAAAAAAAAAAAAAAAAAAAAAAAAAAAAAAAAAAAAAAAAAAAAAAAAAAAAAAAAAAAAAAAAAAAAAAAAAAAAAAAAAAAAAAAAAAAAAAAAAAAAAAAAAAAAAAAAAAAAAAAAAAAAAAAAAAAAAAAAAAAAAAAAAAAAAAAAAAAAAAAAAAAAAAAAAAAAAAAAAAAAAAAAAAAAAAAAAAAAAAAAAAAAAAAAAAAAAAAAAAAAAAAAAAAAAAAAAAAAAAAAAAAAAAAAAAAAAAAAAAAAAAAAAAAAAAAAAAAAAAAAAAAAAAAAAAAAAAAAAAAAAAAAAAAAAAAAAAAAAAAAAAAAAAAAAAAAAAAAAAAAAAAAAAAAAAAAAAAAAAAAAAAAAAAAAAAAAAAAAAAAAAAAAAAAAAAAAAAAAAAAAAAAAAAAAA/9k=;movable=0;resizable=0;rotatable=0;deletable=0;editable=0;connectable=0;" parent="g0rGmHFVurje64OlPNuJ-0" vertex="1">
          <mxGeometry x="1350" y="970" width="280" height="76.51" as="geometry" />
        </mxCell>
        <mxCell id="g0rGmHFVurje64OlPNuJ-2" value="" style="rounded=0;whiteSpace=wrap;html=1;shadow=0;glass=0;labelBackgroundColor=none;sketch=0;fontSize=16;fontColor=none;strokeColor=#000000;fillColor=none;movable=0;resizable=0;rotatable=0;deletable=0;editable=0;connectable=0;" parent="g0rGmHFVurje64OlPNuJ-0" vertex="1">
          <mxGeometry width="1630" height="1150" as="geometry" />
        </mxCell>
        <mxCell id="g0rGmHFVurje64OlPNuJ-3" value="" style="rounded=0;whiteSpace=wrap;html=1;shadow=0;glass=0;labelBackgroundColor=none;sketch=0;fontSize=16;fontColor=none;strokeColor=#000000;fillColor=none;movable=0;resizable=0;rotatable=0;deletable=0;editable=0;connectable=0;" parent="g0rGmHFVurje64OlPNuJ-0" vertex="1">
          <mxGeometry x="1350" y="980" width="280" height="170" as="geometry" />
        </mxCell>
        <mxCell id="g0rGmHFVurje64OlPNuJ-4" value="" style="rounded=0;whiteSpace=wrap;html=1;shadow=0;glass=0;labelBackgroundColor=none;sketch=0;fontSize=16;fontColor=none;strokeColor=#000000;fillColor=none;movable=0;resizable=0;rotatable=0;deletable=0;editable=0;connectable=0;" parent="g0rGmHFVurje64OlPNuJ-0" vertex="1">
          <mxGeometry x="1350" y="1030" width="280" height="30" as="geometry" />
        </mxCell>
        <mxCell id="g0rGmHFVurje64OlPNuJ-5" value="" style="rounded=0;whiteSpace=wrap;html=1;shadow=0;glass=0;labelBackgroundColor=none;sketch=0;fontSize=16;fontColor=none;strokeColor=#000000;fillColor=none;movable=0;resizable=0;rotatable=0;deletable=0;editable=0;connectable=0;" parent="g0rGmHFVurje64OlPNuJ-0" vertex="1">
          <mxGeometry x="1350" y="1090" width="280" height="40" as="geometry" />
        </mxCell>
        <UserObject label="Date: %date{mmmm d, yyyy}%" placeholders="1" lucidchartObjectId="QmFOpBlIQHl2" id="g0rGmHFVurje64OlPNuJ-6">
          <mxCell style="html=1;overflow=block;blockSpacing=1;whiteSpace=wrap;fontSize=11.7;spacing=3.8;strokeOpacity=100;fillOpacity=100;fillColor=none;strokeWidth=0.8;strokeColor=none;align=left;movable=0;resizable=0;rotatable=0;deletable=0;editable=0;connectable=0;" parent="g0rGmHFVurje64OlPNuJ-0" vertex="1">
            <mxGeometry x="1350" y="1130" width="180" height="20" as="geometry" />
          </mxCell>
        </UserObject>
        <UserObject label="Sheet %pagenumber% of %pagecount%" placeholders="1" lucidchartObjectId="QmFOh_MEHetm" id="g0rGmHFVurje64OlPNuJ-7">
          <mxCell style="html=1;overflow=block;blockSpacing=1;whiteSpace=wrap;fontSize=11.7;spacing=3.8;strokeOpacity=100;fillOpacity=100;fillColor=none;strokeWidth=0.8;strokeColor=none;align=right;movable=0;resizable=0;rotatable=0;deletable=0;editable=0;connectable=0;" parent="g0rGmHFVurje64OlPNuJ-0" vertex="1">
            <mxGeometry x="1530" y="1130" width="100" height="20" as="geometry" />
          </mxCell>
        </UserObject>
        <mxCell id="g0rGmHFVurje64OlPNuJ-8" value="" style="group;dropTarget=0;pointerEvents=0;container=1;collapsible=0;recursiveResize=0;movable=0;resizable=0;rotatable=0;deletable=0;editable=0;connectable=0;" parent="0JZgIBOhlEH9NgGS4ZtJ-1" vertex="1">
          <mxGeometry x="1350" y="1020" width="290" height="126" as="geometry" />
        </mxCell>
        <UserObject label="%page%" placeholders="1" lucidchartObjectId="QmFOoLvq_c7E" id="g0rGmHFVurje64OlPNuJ-9">
          <mxCell style="html=1;overflow=block;blockSpacing=1;whiteSpace=wrap;fontSize=11.7;fontColor=default;fontStyle=1;spacingLeft=8.4;spacingRight=8.4;spacingTop=2.4;spacing=3.8;strokeOpacity=0;fillOpacity=0;rounded=1;absoluteArcSize=1;arcSize=7.5;fillColor=none;strokeWidth=1.5;verticalAlign=top;align=left;movable=0;resizable=0;rotatable=0;deletable=0;editable=0;connectable=0;" parent="g0rGmHFVurje64OlPNuJ-8" vertex="1">
            <mxGeometry x="9" y="50" width="281" height="18" as="geometry" />
          </mxCell>
        </UserObject>
        <UserObject label="Rev: 0.1" lucidchartObjectId="QmFOwpmsjmbM" id="g0rGmHFVurje64OlPNuJ-10">
          <mxCell style="html=1;overflow=block;blockSpacing=1;whiteSpace=wrap;fontSize=11.7;fontColor=default;spacingLeft=8.4;spacingRight=8.4;spacingTop=2.4;spacing=3.8;strokeOpacity=0;fillOpacity=0;rounded=1;absoluteArcSize=1;arcSize=7.5;fillColor=none;strokeWidth=1.5;align=right;verticalAlign=top;movable=0;resizable=0;rotatable=0;deletable=0;editable=0;connectable=0;" parent="g0rGmHFVurje64OlPNuJ-8" vertex="1">
            <mxGeometry x="220" y="80" width="70" height="40" as="geometry" />
          </mxCell>
        </UserObject>
        <UserObject label="%filename%" placeholders="1" lucidchartObjectId="QmFOkH9dSwxm" id="g0rGmHFVurje64OlPNuJ-11">
          <mxCell style="html=1;overflow=block;blockSpacing=1;whiteSpace=wrap;fontSize=11.7;fontStyle=1;spacing=3.8;strokeOpacity=100;fillOpacity=100;fillColor=none;strokeWidth=0.8;strokeColor=none;align=left;verticalAlign=top;movable=0;resizable=0;rotatable=0;deletable=0;editable=0;connectable=0;" parent="g0rGmHFVurje64OlPNuJ-8" vertex="1">
            <mxGeometry x="10" y="20" width="276" height="20" as="geometry" />
          </mxCell>
        </UserObject>
        <UserObject label="&lt;font color=&quot;#000000&quot;&gt;Document Number: Drafting&lt;/font&gt;" lucidchartObjectId="g-97wbGfZgpk" id="g0rGmHFVurje64OlPNuJ-12">
          <mxCell style="html=1;overflow=block;blockSpacing=1;whiteSpace=wrap;fontSize=11.7;fontColor=#666666;spacingLeft=8.4;spacingRight=8.4;spacingTop=2.4;spacing=3.8;strokeOpacity=0;fillOpacity=0;rounded=1;absoluteArcSize=1;arcSize=1.5;fillColor=none;strokeWidth=1.5;verticalAlign=top;align=left;movable=0;resizable=0;rotatable=0;deletable=0;editable=0;connectable=0;" parent="g0rGmHFVurje64OlPNuJ-8" vertex="1">
            <mxGeometry x="10" y="80" width="220" height="40" as="geometry" />
          </mxCell>
        </UserObject>
        <mxCell id="GbKHM8MlycqqiFrZBcUJ-0" value="Notes:" style="text;html=1;strokeColor=default;fillColor=none;align=left;verticalAlign=top;whiteSpace=wrap;rounded=0;fontSize=10;movable=1;resizable=1;rotatable=1;deletable=1;editable=1;connectable=1;" parent="0JZgIBOhlEH9NgGS4ZtJ-1" vertex="1">
          <mxGeometry x="800" y="990" width="560" height="170" as="geometry" />
        </mxCell>
        <mxCell id="Z9_JjJ6v5j_ZdbIGic0J-86" value="Diagram" parent="0JZgIBOhlEH9NgGS4ZtJ-0" />
        <mxCell id="CxRS1yaNCMpK67Dqv5Cj-87" value="" style="group" vertex="1" connectable="0" parent="Z9_JjJ6v5j_ZdbIGic0J-86">
          <mxGeometry x="200" y="50" width="190" height="630" as="geometry" />
        </mxCell>
        <mxCell id="CxRS1yaNCMpK67Dqv5Cj-2" value="J1 - External IO 1&lt;br&gt;(3.5 mm Pitch 28 Cavity)" style="rounded=1;whiteSpace=wrap;html=1;fontSize=12;verticalAlign=top;" vertex="1" parent="CxRS1yaNCMpK67Dqv5Cj-87">
          <mxGeometry width="170" height="630" as="geometry" />
        </mxCell>
        <mxCell id="CxRS1yaNCMpK67Dqv5Cj-5" value="" style="endArrow=none;html=1;rounded=1;fontSize=12;exitX=1;exitY=0.5;exitDx=0;exitDy=0;" edge="1" parent="CxRS1yaNCMpK67Dqv5Cj-87" source="CxRS1yaNCMpK67Dqv5Cj-6">
          <mxGeometry width="50" height="50" relative="1" as="geometry">
            <mxPoint x="170" y="69.99999999999955" as="sourcePoint" />
            <mxPoint x="190" y="49.999999999999545" as="targetPoint" />
          </mxGeometry>
        </mxCell>
        <mxCell id="CxRS1yaNCMpK67Dqv5Cj-6" value="+12 V Pin1" style="text;html=1;strokeColor=none;fillColor=none;align=right;verticalAlign=middle;whiteSpace=wrap;rounded=0;fontSize=12;" vertex="1" parent="CxRS1yaNCMpK67Dqv5Cj-87">
          <mxGeometry y="40" width="170" height="20" as="geometry" />
        </mxCell>
        <mxCell id="CxRS1yaNCMpK67Dqv5Cj-7" value="" style="endArrow=none;html=1;rounded=1;fontSize=12;" edge="1" parent="CxRS1yaNCMpK67Dqv5Cj-87">
          <mxGeometry width="50" height="50" relative="1" as="geometry">
            <mxPoint x="170" y="69.99999999999955" as="sourcePoint" />
            <mxPoint x="190" y="69.99999999999955" as="targetPoint" />
            <Array as="points">
              <mxPoint x="190" y="69.99999999999955" />
            </Array>
          </mxGeometry>
        </mxCell>
        <mxCell id="CxRS1yaNCMpK67Dqv5Cj-8" value="+5 V Pin2" style="text;html=1;strokeColor=none;fillColor=none;align=right;verticalAlign=middle;whiteSpace=wrap;rounded=0;fontSize=12;" vertex="1" parent="CxRS1yaNCMpK67Dqv5Cj-87">
          <mxGeometry y="60" width="170" height="20" as="geometry" />
        </mxCell>
        <mxCell id="CxRS1yaNCMpK67Dqv5Cj-9" value="" style="endArrow=none;html=1;rounded=1;fontSize=12;exitX=1;exitY=0.5;exitDx=0;exitDy=0;" edge="1" parent="CxRS1yaNCMpK67Dqv5Cj-87">
          <mxGeometry width="50" height="50" relative="1" as="geometry">
            <mxPoint x="170" y="89.99999999999955" as="sourcePoint" />
            <mxPoint x="190" y="89.99999999999955" as="targetPoint" />
          </mxGeometry>
        </mxCell>
        <mxCell id="CxRS1yaNCMpK67Dqv5Cj-11" value="" style="endArrow=none;html=1;rounded=1;fontSize=12;" edge="1" parent="CxRS1yaNCMpK67Dqv5Cj-87">
          <mxGeometry width="50" height="50" relative="1" as="geometry">
            <mxPoint x="170" y="109.99999999999955" as="sourcePoint" />
            <mxPoint x="190" y="109.99999999999955" as="targetPoint" />
            <Array as="points">
              <mxPoint x="190" y="109.99999999999955" />
            </Array>
          </mxGeometry>
        </mxCell>
        <mxCell id="CxRS1yaNCMpK67Dqv5Cj-13" value="" style="endArrow=none;html=1;rounded=1;fontSize=12;exitX=1;exitY=0.5;exitDx=0;exitDy=0;" edge="1" parent="CxRS1yaNCMpK67Dqv5Cj-87">
          <mxGeometry width="50" height="50" relative="1" as="geometry">
            <mxPoint x="170" y="129.99999999999955" as="sourcePoint" />
            <mxPoint x="190" y="129.99999999999955" as="targetPoint" />
          </mxGeometry>
        </mxCell>
        <mxCell id="CxRS1yaNCMpK67Dqv5Cj-15" value="" style="endArrow=none;html=1;rounded=1;fontSize=12;" edge="1" parent="CxRS1yaNCMpK67Dqv5Cj-87">
          <mxGeometry width="50" height="50" relative="1" as="geometry">
            <mxPoint x="170" y="149.99999999999955" as="sourcePoint" />
            <mxPoint x="190" y="149.99999999999955" as="targetPoint" />
            <Array as="points">
              <mxPoint x="190" y="149.99999999999955" />
            </Array>
          </mxGeometry>
        </mxCell>
        <mxCell id="CxRS1yaNCMpK67Dqv5Cj-17" value="" style="endArrow=none;html=1;rounded=1;fontSize=12;exitX=1;exitY=0.5;exitDx=0;exitDy=0;" edge="1" parent="CxRS1yaNCMpK67Dqv5Cj-87">
          <mxGeometry width="50" height="50" relative="1" as="geometry">
            <mxPoint x="170" y="169.99999999999955" as="sourcePoint" />
            <mxPoint x="190" y="169.99999999999955" as="targetPoint" />
          </mxGeometry>
        </mxCell>
        <mxCell id="CxRS1yaNCMpK67Dqv5Cj-19" value="" style="endArrow=none;html=1;rounded=1;fontSize=12;" edge="1" parent="CxRS1yaNCMpK67Dqv5Cj-87">
          <mxGeometry width="50" height="50" relative="1" as="geometry">
            <mxPoint x="170" y="189.99999999999955" as="sourcePoint" />
            <mxPoint x="190" y="189.99999999999955" as="targetPoint" />
            <Array as="points">
              <mxPoint x="190" y="189.99999999999955" />
            </Array>
          </mxGeometry>
        </mxCell>
        <mxCell id="CxRS1yaNCMpK67Dqv5Cj-21" value="" style="endArrow=none;html=1;rounded=1;fontSize=12;exitX=1;exitY=0.5;exitDx=0;exitDy=0;" edge="1" parent="CxRS1yaNCMpK67Dqv5Cj-87">
          <mxGeometry width="50" height="50" relative="1" as="geometry">
            <mxPoint x="170" y="209.99999999999955" as="sourcePoint" />
            <mxPoint x="190" y="209.99999999999955" as="targetPoint" />
          </mxGeometry>
        </mxCell>
        <mxCell id="CxRS1yaNCMpK67Dqv5Cj-23" value="" style="endArrow=none;html=1;rounded=1;fontSize=12;" edge="1" parent="CxRS1yaNCMpK67Dqv5Cj-87">
          <mxGeometry width="50" height="50" relative="1" as="geometry">
            <mxPoint x="170" y="229.99999999999955" as="sourcePoint" />
            <mxPoint x="190" y="229.99999999999955" as="targetPoint" />
            <Array as="points">
              <mxPoint x="190" y="229.99999999999955" />
            </Array>
          </mxGeometry>
        </mxCell>
        <mxCell id="CxRS1yaNCMpK67Dqv5Cj-25" value="" style="endArrow=none;html=1;rounded=1;fontSize=12;exitX=1;exitY=0.5;exitDx=0;exitDy=0;" edge="1" parent="CxRS1yaNCMpK67Dqv5Cj-87">
          <mxGeometry width="50" height="50" relative="1" as="geometry">
            <mxPoint x="170" y="249.99999999999955" as="sourcePoint" />
            <mxPoint x="190" y="249.99999999999955" as="targetPoint" />
          </mxGeometry>
        </mxCell>
        <mxCell id="CxRS1yaNCMpK67Dqv5Cj-27" value="" style="endArrow=none;html=1;rounded=1;fontSize=12;" edge="1" parent="CxRS1yaNCMpK67Dqv5Cj-87">
          <mxGeometry width="50" height="50" relative="1" as="geometry">
            <mxPoint x="170" y="269.99999999999955" as="sourcePoint" />
            <mxPoint x="190" y="269.99999999999955" as="targetPoint" />
            <Array as="points">
              <mxPoint x="180" y="269.99999999999955" />
              <mxPoint x="190" y="269.99999999999955" />
            </Array>
          </mxGeometry>
        </mxCell>
        <mxCell id="CxRS1yaNCMpK67Dqv5Cj-29" value="" style="endArrow=none;html=1;rounded=1;fontSize=12;exitX=1;exitY=0.5;exitDx=0;exitDy=0;" edge="1" parent="CxRS1yaNCMpK67Dqv5Cj-87">
          <mxGeometry width="50" height="50" relative="1" as="geometry">
            <mxPoint x="170" y="289.99999999999955" as="sourcePoint" />
            <mxPoint x="190" y="289.99999999999955" as="targetPoint" />
          </mxGeometry>
        </mxCell>
        <mxCell id="CxRS1yaNCMpK67Dqv5Cj-31" value="" style="endArrow=none;html=1;rounded=1;fontSize=12;" edge="1" parent="CxRS1yaNCMpK67Dqv5Cj-87">
          <mxGeometry width="50" height="50" relative="1" as="geometry">
            <mxPoint x="170" y="309.99999999999955" as="sourcePoint" />
            <mxPoint x="190" y="309.99999999999955" as="targetPoint" />
            <Array as="points">
              <mxPoint x="190" y="309.99999999999955" />
            </Array>
          </mxGeometry>
        </mxCell>
        <mxCell id="CxRS1yaNCMpK67Dqv5Cj-33" value="" style="endArrow=none;html=1;rounded=1;fontSize=12;exitX=1;exitY=0.5;exitDx=0;exitDy=0;" edge="1" parent="CxRS1yaNCMpK67Dqv5Cj-87">
          <mxGeometry width="50" height="50" relative="1" as="geometry">
            <mxPoint x="170" y="329.99999999999955" as="sourcePoint" />
            <mxPoint x="190" y="329.99999999999955" as="targetPoint" />
          </mxGeometry>
        </mxCell>
        <mxCell id="CxRS1yaNCMpK67Dqv5Cj-35" value="" style="endArrow=none;html=1;rounded=1;fontSize=12;" edge="1" parent="CxRS1yaNCMpK67Dqv5Cj-87">
          <mxGeometry width="50" height="50" relative="1" as="geometry">
            <mxPoint x="170" y="349.99999999999955" as="sourcePoint" />
            <mxPoint x="190" y="349.99999999999955" as="targetPoint" />
            <Array as="points">
              <mxPoint x="190" y="349.99999999999955" />
            </Array>
          </mxGeometry>
        </mxCell>
        <mxCell id="CxRS1yaNCMpK67Dqv5Cj-37" value="" style="endArrow=none;html=1;rounded=1;fontSize=12;exitX=1;exitY=0.5;exitDx=0;exitDy=0;" edge="1" parent="CxRS1yaNCMpK67Dqv5Cj-87">
          <mxGeometry width="50" height="50" relative="1" as="geometry">
            <mxPoint x="170" y="369.99999999999955" as="sourcePoint" />
            <mxPoint x="190" y="369.99999999999955" as="targetPoint" />
          </mxGeometry>
        </mxCell>
        <mxCell id="CxRS1yaNCMpK67Dqv5Cj-39" value="" style="endArrow=none;html=1;rounded=1;fontSize=12;" edge="1" parent="CxRS1yaNCMpK67Dqv5Cj-87">
          <mxGeometry width="50" height="50" relative="1" as="geometry">
            <mxPoint x="170" y="389.99999999999955" as="sourcePoint" />
            <mxPoint x="190" y="389.99999999999955" as="targetPoint" />
            <Array as="points">
              <mxPoint x="190" y="389.99999999999955" />
            </Array>
          </mxGeometry>
        </mxCell>
        <mxCell id="CxRS1yaNCMpK67Dqv5Cj-41" value="" style="endArrow=none;html=1;rounded=1;fontSize=12;exitX=1;exitY=0.5;exitDx=0;exitDy=0;" edge="1" parent="CxRS1yaNCMpK67Dqv5Cj-87">
          <mxGeometry width="50" height="50" relative="1" as="geometry">
            <mxPoint x="170" y="409.99999999999955" as="sourcePoint" />
            <mxPoint x="190" y="409.99999999999955" as="targetPoint" />
          </mxGeometry>
        </mxCell>
        <mxCell id="CxRS1yaNCMpK67Dqv5Cj-43" value="" style="endArrow=none;html=1;rounded=1;fontSize=12;" edge="1" parent="CxRS1yaNCMpK67Dqv5Cj-87">
          <mxGeometry width="50" height="50" relative="1" as="geometry">
            <mxPoint x="170" y="429.99999999999955" as="sourcePoint" />
            <mxPoint x="190" y="429.99999999999955" as="targetPoint" />
            <Array as="points">
              <mxPoint x="190" y="429.99999999999955" />
            </Array>
          </mxGeometry>
        </mxCell>
        <mxCell id="CxRS1yaNCMpK67Dqv5Cj-45" value="" style="endArrow=none;html=1;rounded=1;fontSize=12;exitX=1;exitY=0.5;exitDx=0;exitDy=0;" edge="1" parent="CxRS1yaNCMpK67Dqv5Cj-87">
          <mxGeometry width="50" height="50" relative="1" as="geometry">
            <mxPoint x="170" y="449.99999999999966" as="sourcePoint" />
            <mxPoint x="190" y="449.99999999999955" as="targetPoint" />
          </mxGeometry>
        </mxCell>
        <mxCell id="CxRS1yaNCMpK67Dqv5Cj-47" value="" style="endArrow=none;html=1;rounded=1;fontSize=12;" edge="1" parent="CxRS1yaNCMpK67Dqv5Cj-87">
          <mxGeometry width="50" height="50" relative="1" as="geometry">
            <mxPoint x="170" y="469.99999999999955" as="sourcePoint" />
            <mxPoint x="190" y="469.99999999999955" as="targetPoint" />
            <Array as="points">
              <mxPoint x="190" y="469.99999999999955" />
            </Array>
          </mxGeometry>
        </mxCell>
        <mxCell id="CxRS1yaNCMpK67Dqv5Cj-49" value="" style="endArrow=none;html=1;rounded=1;fontSize=12;exitX=1;exitY=0.5;exitDx=0;exitDy=0;" edge="1" parent="CxRS1yaNCMpK67Dqv5Cj-87">
          <mxGeometry width="50" height="50" relative="1" as="geometry">
            <mxPoint x="170" y="489.99999999999966" as="sourcePoint" />
            <mxPoint x="190" y="489.99999999999955" as="targetPoint" />
          </mxGeometry>
        </mxCell>
        <mxCell id="CxRS1yaNCMpK67Dqv5Cj-54" value="GND Pin3" style="text;html=1;strokeColor=none;fillColor=none;align=right;verticalAlign=middle;whiteSpace=wrap;rounded=0;fontSize=12;" vertex="1" parent="CxRS1yaNCMpK67Dqv5Cj-87">
          <mxGeometry y="80" width="170" height="20" as="geometry" />
        </mxCell>
        <mxCell id="CxRS1yaNCMpK67Dqv5Cj-55" value="DIO1 Pin4" style="text;html=1;strokeColor=none;fillColor=none;align=right;verticalAlign=middle;whiteSpace=wrap;rounded=0;fontSize=12;" vertex="1" parent="CxRS1yaNCMpK67Dqv5Cj-87">
          <mxGeometry y="100" width="170" height="20" as="geometry" />
        </mxCell>
        <mxCell id="CxRS1yaNCMpK67Dqv5Cj-56" value="DIO2 Pin5" style="text;html=1;strokeColor=none;fillColor=none;align=right;verticalAlign=middle;whiteSpace=wrap;rounded=0;fontSize=12;" vertex="1" parent="CxRS1yaNCMpK67Dqv5Cj-87">
          <mxGeometry y="120" width="170" height="20" as="geometry" />
        </mxCell>
        <mxCell id="CxRS1yaNCMpK67Dqv5Cj-57" value="DIO3 Pin6" style="text;html=1;strokeColor=none;fillColor=none;align=right;verticalAlign=middle;whiteSpace=wrap;rounded=0;fontSize=12;" vertex="1" parent="CxRS1yaNCMpK67Dqv5Cj-87">
          <mxGeometry y="140" width="170" height="20" as="geometry" />
        </mxCell>
        <mxCell id="CxRS1yaNCMpK67Dqv5Cj-58" value="DIO4 Pin7" style="text;html=1;strokeColor=none;fillColor=none;align=right;verticalAlign=middle;whiteSpace=wrap;rounded=0;fontSize=12;" vertex="1" parent="CxRS1yaNCMpK67Dqv5Cj-87">
          <mxGeometry y="160" width="170" height="20" as="geometry" />
        </mxCell>
        <mxCell id="CxRS1yaNCMpK67Dqv5Cj-59" value="DIO5 Pin8" style="text;html=1;strokeColor=none;fillColor=none;align=right;verticalAlign=middle;whiteSpace=wrap;rounded=0;fontSize=12;" vertex="1" parent="CxRS1yaNCMpK67Dqv5Cj-87">
          <mxGeometry y="180" width="170" height="20" as="geometry" />
        </mxCell>
        <mxCell id="CxRS1yaNCMpK67Dqv5Cj-60" value="DIO6 Pin9" style="text;html=1;strokeColor=none;fillColor=none;align=right;verticalAlign=middle;whiteSpace=wrap;rounded=0;fontSize=12;" vertex="1" parent="CxRS1yaNCMpK67Dqv5Cj-87">
          <mxGeometry y="200" width="170" height="20" as="geometry" />
        </mxCell>
        <mxCell id="CxRS1yaNCMpK67Dqv5Cj-61" value="DIO7 Pin10" style="text;html=1;strokeColor=none;fillColor=none;align=right;verticalAlign=middle;whiteSpace=wrap;rounded=0;fontSize=12;" vertex="1" parent="CxRS1yaNCMpK67Dqv5Cj-87">
          <mxGeometry y="220" width="170" height="20" as="geometry" />
        </mxCell>
        <mxCell id="CxRS1yaNCMpK67Dqv5Cj-62" value="GND Pin11" style="text;html=1;strokeColor=none;fillColor=none;align=right;verticalAlign=middle;whiteSpace=wrap;rounded=0;fontSize=12;" vertex="1" parent="CxRS1yaNCMpK67Dqv5Cj-87">
          <mxGeometry y="240" width="170" height="20" as="geometry" />
        </mxCell>
        <mxCell id="CxRS1yaNCMpK67Dqv5Cj-63" value="RAG R Pin12" style="text;html=1;strokeColor=none;fillColor=none;align=right;verticalAlign=middle;whiteSpace=wrap;rounded=0;fontSize=12;" vertex="1" parent="CxRS1yaNCMpK67Dqv5Cj-87">
          <mxGeometry y="260" width="170" height="20" as="geometry" />
        </mxCell>
        <mxCell id="CxRS1yaNCMpK67Dqv5Cj-64" value="RAG A Pin13" style="text;html=1;strokeColor=none;fillColor=none;align=right;verticalAlign=middle;whiteSpace=wrap;rounded=0;fontSize=12;" vertex="1" parent="CxRS1yaNCMpK67Dqv5Cj-87">
          <mxGeometry y="280" width="170" height="20" as="geometry" />
        </mxCell>
        <mxCell id="CxRS1yaNCMpK67Dqv5Cj-65" value="RAG G Pin14" style="text;html=1;strokeColor=none;fillColor=none;align=right;verticalAlign=middle;whiteSpace=wrap;rounded=0;fontSize=12;" vertex="1" parent="CxRS1yaNCMpK67Dqv5Cj-87">
          <mxGeometry y="300" width="170" height="20" as="geometry" />
        </mxCell>
        <mxCell id="CxRS1yaNCMpK67Dqv5Cj-66" value="+12 V Pin15" style="text;html=1;strokeColor=none;fillColor=none;align=right;verticalAlign=middle;whiteSpace=wrap;rounded=0;fontSize=12;" vertex="1" parent="CxRS1yaNCMpK67Dqv5Cj-87">
          <mxGeometry y="320" width="170" height="20" as="geometry" />
        </mxCell>
        <mxCell id="CxRS1yaNCMpK67Dqv5Cj-67" value="+5 V Pin16" style="text;html=1;strokeColor=none;fillColor=none;align=right;verticalAlign=middle;whiteSpace=wrap;rounded=0;fontSize=12;" vertex="1" parent="CxRS1yaNCMpK67Dqv5Cj-87">
          <mxGeometry y="340" width="170" height="20" as="geometry" />
        </mxCell>
        <mxCell id="CxRS1yaNCMpK67Dqv5Cj-68" value="GND Pin17" style="text;html=1;strokeColor=none;fillColor=none;align=right;verticalAlign=middle;whiteSpace=wrap;rounded=0;fontSize=12;" vertex="1" parent="CxRS1yaNCMpK67Dqv5Cj-87">
          <mxGeometry y="360" width="170" height="20" as="geometry" />
        </mxCell>
        <mxCell id="CxRS1yaNCMpK67Dqv5Cj-69" value="HV PSU Pin18" style="text;html=1;strokeColor=none;fillColor=none;align=right;verticalAlign=middle;whiteSpace=wrap;rounded=0;fontSize=12;" vertex="1" parent="CxRS1yaNCMpK67Dqv5Cj-87">
          <mxGeometry y="380" width="170" height="20" as="geometry" />
        </mxCell>
        <mxCell id="CxRS1yaNCMpK67Dqv5Cj-70" value="External Relay 6 Pin19" style="text;html=1;strokeColor=none;fillColor=none;align=right;verticalAlign=middle;whiteSpace=wrap;rounded=0;fontSize=12;" vertex="1" parent="CxRS1yaNCMpK67Dqv5Cj-87">
          <mxGeometry y="400" width="170" height="20" as="geometry" />
        </mxCell>
        <mxCell id="CxRS1yaNCMpK67Dqv5Cj-71" value="External Relay 5 Pin20" style="text;html=1;strokeColor=none;fillColor=none;align=right;verticalAlign=middle;whiteSpace=wrap;rounded=0;fontSize=12;" vertex="1" parent="CxRS1yaNCMpK67Dqv5Cj-87">
          <mxGeometry y="420" width="170" height="20" as="geometry" />
        </mxCell>
        <mxCell id="CxRS1yaNCMpK67Dqv5Cj-72" value="External Relay 4 Pin21" style="text;html=1;strokeColor=none;fillColor=none;align=right;verticalAlign=middle;whiteSpace=wrap;rounded=0;fontSize=12;" vertex="1" parent="CxRS1yaNCMpK67Dqv5Cj-87">
          <mxGeometry y="440" width="170" height="20" as="geometry" />
        </mxCell>
        <mxCell id="CxRS1yaNCMpK67Dqv5Cj-73" value="External Relay 3 Pin22" style="text;html=1;strokeColor=none;fillColor=none;align=right;verticalAlign=middle;whiteSpace=wrap;rounded=0;fontSize=12;" vertex="1" parent="CxRS1yaNCMpK67Dqv5Cj-87">
          <mxGeometry y="460" width="170" height="20" as="geometry" />
        </mxCell>
        <mxCell id="CxRS1yaNCMpK67Dqv5Cj-74" value="External Relay 2 Pin23" style="text;html=1;strokeColor=none;fillColor=none;align=right;verticalAlign=middle;whiteSpace=wrap;rounded=0;fontSize=12;" vertex="1" parent="CxRS1yaNCMpK67Dqv5Cj-87">
          <mxGeometry y="480" width="170" height="20" as="geometry" />
        </mxCell>
        <mxCell id="CxRS1yaNCMpK67Dqv5Cj-75" value="External Relay 1 Pin24" style="text;html=1;strokeColor=none;fillColor=none;align=right;verticalAlign=middle;whiteSpace=wrap;rounded=0;fontSize=12;" vertex="1" parent="CxRS1yaNCMpK67Dqv5Cj-87">
          <mxGeometry y="500" width="170" height="20" as="geometry" />
        </mxCell>
        <mxCell id="CxRS1yaNCMpK67Dqv5Cj-76" value="" style="endArrow=none;html=1;rounded=1;fontSize=12;exitX=1;exitY=0.5;exitDx=0;exitDy=0;" edge="1" parent="CxRS1yaNCMpK67Dqv5Cj-87">
          <mxGeometry width="50" height="50" relative="1" as="geometry">
            <mxPoint x="170" y="509.7999999999996" as="sourcePoint" />
            <mxPoint x="190" y="509.7999999999996" as="targetPoint" />
          </mxGeometry>
        </mxCell>
        <mxCell id="CxRS1yaNCMpK67Dqv5Cj-79" value="+5 V Pin25" style="text;html=1;strokeColor=none;fillColor=none;align=right;verticalAlign=middle;whiteSpace=wrap;rounded=0;fontSize=12;" vertex="1" parent="CxRS1yaNCMpK67Dqv5Cj-87">
          <mxGeometry y="520" width="170" height="20" as="geometry" />
        </mxCell>
        <mxCell id="CxRS1yaNCMpK67Dqv5Cj-80" value="" style="endArrow=none;html=1;rounded=1;fontSize=12;exitX=1;exitY=0.5;exitDx=0;exitDy=0;" edge="1" parent="CxRS1yaNCMpK67Dqv5Cj-87">
          <mxGeometry width="50" height="50" relative="1" as="geometry">
            <mxPoint x="170" y="529.7999999999996" as="sourcePoint" />
            <mxPoint x="190" y="529.7999999999996" as="targetPoint" />
          </mxGeometry>
        </mxCell>
        <mxCell id="CxRS1yaNCMpK67Dqv5Cj-81" value="Door Closed Pin26" style="text;html=1;strokeColor=none;fillColor=none;align=right;verticalAlign=middle;whiteSpace=wrap;rounded=0;fontSize=12;" vertex="1" parent="CxRS1yaNCMpK67Dqv5Cj-87">
          <mxGeometry y="540" width="170" height="20" as="geometry" />
        </mxCell>
        <mxCell id="CxRS1yaNCMpK67Dqv5Cj-82" value="Interlock Loop Pin27" style="text;html=1;strokeColor=none;fillColor=none;align=right;verticalAlign=middle;whiteSpace=wrap;rounded=0;fontSize=12;" vertex="1" parent="CxRS1yaNCMpK67Dqv5Cj-87">
          <mxGeometry y="560" width="170" height="20" as="geometry" />
        </mxCell>
        <mxCell id="CxRS1yaNCMpK67Dqv5Cj-83" value="Test Start Pin28" style="text;html=1;strokeColor=none;fillColor=none;align=right;verticalAlign=middle;whiteSpace=wrap;rounded=0;fontSize=12;" vertex="1" parent="CxRS1yaNCMpK67Dqv5Cj-87">
          <mxGeometry y="580" width="170" height="20" as="geometry" />
        </mxCell>
        <mxCell id="CxRS1yaNCMpK67Dqv5Cj-84" value="" style="endArrow=none;html=1;rounded=1;fontSize=12;exitX=1;exitY=0.5;exitDx=0;exitDy=0;" edge="1" parent="CxRS1yaNCMpK67Dqv5Cj-87">
          <mxGeometry width="50" height="50" relative="1" as="geometry">
            <mxPoint x="170" y="549.7999999999996" as="sourcePoint" />
            <mxPoint x="190" y="549.7999999999996" as="targetPoint" />
          </mxGeometry>
        </mxCell>
        <mxCell id="CxRS1yaNCMpK67Dqv5Cj-85" value="" style="endArrow=none;html=1;rounded=1;fontSize=12;exitX=1;exitY=0.5;exitDx=0;exitDy=0;" edge="1" parent="CxRS1yaNCMpK67Dqv5Cj-87">
          <mxGeometry width="50" height="50" relative="1" as="geometry">
            <mxPoint x="170" y="569.7999999999996" as="sourcePoint" />
            <mxPoint x="190" y="569.7999999999996" as="targetPoint" />
          </mxGeometry>
        </mxCell>
        <mxCell id="CxRS1yaNCMpK67Dqv5Cj-86" value="" style="endArrow=none;html=1;rounded=1;fontSize=12;exitX=1;exitY=0.5;exitDx=0;exitDy=0;" edge="1" parent="CxRS1yaNCMpK67Dqv5Cj-87">
          <mxGeometry width="50" height="50" relative="1" as="geometry">
            <mxPoint x="170" y="589.7999999999996" as="sourcePoint" />
            <mxPoint x="190" y="589.7999999999996" as="targetPoint" />
          </mxGeometry>
        </mxCell>
      </root>
    </mxGraphModel>
  </diagram>
</mxfile>
